<mxfile host="Electron" modified="2023-06-17T19:34:17.163Z" agent="Mozilla/5.0 (Windows NT 10.0; Win64; x64) AppleWebKit/537.36 (KHTML, like Gecko) draw.io/21.4.0 Chrome/112.0.5615.204 Electron/24.5.1 Safari/537.36" etag="GCrccgX6eOt09_NIRKH1" version="21.4.0" type="device">
  <diagram name="Page-1" id="oVk6OJmeQYWeN-jiUmRK">
    <mxGraphModel dx="2516" dy="1828" grid="1" gridSize="10" guides="1" tooltips="1" connect="1" arrows="1" fold="1" page="1" pageScale="1" pageWidth="827" pageHeight="1169" math="0" shadow="0">
      <root>
        <mxCell id="0" />
        <mxCell id="1" parent="0" />
        <mxCell id="lHOqpLfYiDpw_6H5dYu--136" value="" style="group" vertex="1" connectable="0" parent="1">
          <mxGeometry x="-20" y="360" width="260" height="59" as="geometry" />
        </mxCell>
        <mxCell id="lHOqpLfYiDpw_6H5dYu--95" value="" style="endArrow=oval;html=1;rounded=0;fillColor=#dae8fc;strokeColor=#6c8ebf;strokeWidth=3;startArrow=oval;startFill=1;jumpStyle=none;endFill=1;endSize=1;startSize=1;" edge="1" parent="lHOqpLfYiDpw_6H5dYu--136">
          <mxGeometry width="50" height="50" relative="1" as="geometry">
            <mxPoint x="110" y="50" as="sourcePoint" />
            <mxPoint x="150" y="50" as="targetPoint" />
          </mxGeometry>
        </mxCell>
        <mxCell id="lHOqpLfYiDpw_6H5dYu--96" value="" style="endArrow=oval;html=1;rounded=0;fillColor=#dae8fc;strokeColor=#6c8ebf;strokeWidth=3;startArrow=oval;startFill=1;jumpStyle=none;endFill=1;endSize=1;startSize=1;" edge="1" parent="lHOqpLfYiDpw_6H5dYu--136">
          <mxGeometry width="50" height="50" relative="1" as="geometry">
            <mxPoint x="150" y="50" as="sourcePoint" />
            <mxPoint x="170" y="32" as="targetPoint" />
          </mxGeometry>
        </mxCell>
        <mxCell id="lHOqpLfYiDpw_6H5dYu--97" value="" style="endArrow=oval;html=1;rounded=0;fillColor=#dae8fc;strokeColor=#6c8ebf;strokeWidth=3;startArrow=oval;startFill=1;jumpStyle=none;endFill=1;endSize=1;startSize=1;" edge="1" parent="lHOqpLfYiDpw_6H5dYu--136">
          <mxGeometry width="50" height="50" relative="1" as="geometry">
            <mxPoint x="150" y="10" as="sourcePoint" />
            <mxPoint x="170" y="28" as="targetPoint" />
          </mxGeometry>
        </mxCell>
        <mxCell id="lHOqpLfYiDpw_6H5dYu--98" value="" style="endArrow=oval;html=1;rounded=0;fillColor=#dae8fc;strokeColor=#6c8ebf;strokeWidth=3;startArrow=oval;startFill=1;jumpStyle=none;endSize=1;startSize=1;endFill=1;jumpSize=3;" edge="1" parent="lHOqpLfYiDpw_6H5dYu--136">
          <mxGeometry width="50" height="50" relative="1" as="geometry">
            <mxPoint x="60" y="32" as="sourcePoint" />
            <mxPoint x="90" y="32" as="targetPoint" />
          </mxGeometry>
        </mxCell>
        <mxCell id="lHOqpLfYiDpw_6H5dYu--99" value="" style="endArrow=oval;html=1;rounded=0;fillColor=#dae8fc;strokeColor=#6c8ebf;strokeWidth=3;startArrow=oval;startFill=1;jumpStyle=none;endSize=1;startSize=1;endFill=1;jumpSize=3;" edge="1" parent="lHOqpLfYiDpw_6H5dYu--136">
          <mxGeometry width="50" height="50" relative="1" as="geometry">
            <mxPoint x="60" y="28" as="sourcePoint" />
            <mxPoint x="90" y="28" as="targetPoint" />
          </mxGeometry>
        </mxCell>
        <mxCell id="lHOqpLfYiDpw_6H5dYu--100" value="" style="endArrow=oval;html=1;rounded=0;fillColor=#dae8fc;strokeColor=#6c8ebf;strokeWidth=3;startArrow=oval;startFill=1;jumpStyle=none;endSize=1;startSize=1;endFill=1;jumpSize=3;" edge="1" parent="lHOqpLfYiDpw_6H5dYu--136">
          <mxGeometry width="50" height="50" relative="1" as="geometry">
            <mxPoint x="40" y="50" as="sourcePoint" />
            <mxPoint x="60" y="32" as="targetPoint" />
          </mxGeometry>
        </mxCell>
        <mxCell id="lHOqpLfYiDpw_6H5dYu--101" value="" style="endArrow=oval;html=1;rounded=0;fillColor=#dae8fc;strokeColor=#6C8EBF;strokeWidth=3;startArrow=oval;startFill=1;jumpStyle=none;endSize=1;startSize=1;endFill=1;jumpSize=3;" edge="1" parent="lHOqpLfYiDpw_6H5dYu--136">
          <mxGeometry width="50" height="50" relative="1" as="geometry">
            <mxPoint x="40" y="10" as="sourcePoint" />
            <mxPoint x="60" y="28" as="targetPoint" />
          </mxGeometry>
        </mxCell>
        <mxCell id="lHOqpLfYiDpw_6H5dYu--102" value="" style="endArrow=oval;html=1;rounded=0;fillColor=#dae8fc;strokeColor=#6c8ebf;strokeWidth=3;startArrow=oval;startFill=1;jumpStyle=none;endSize=1;startSize=1;endFill=1;jumpSize=3;" edge="1" parent="lHOqpLfYiDpw_6H5dYu--136">
          <mxGeometry width="50" height="50" relative="1" as="geometry">
            <mxPoint x="90" y="32" as="sourcePoint" />
            <mxPoint x="110" y="50" as="targetPoint" />
          </mxGeometry>
        </mxCell>
        <mxCell id="lHOqpLfYiDpw_6H5dYu--103" value="" style="endArrow=oval;html=1;rounded=0;fillColor=#dae8fc;strokeColor=#6c8ebf;strokeWidth=3;startArrow=oval;startFill=1;jumpStyle=none;endSize=1;startSize=1;endFill=1;jumpSize=3;" edge="1" parent="lHOqpLfYiDpw_6H5dYu--136">
          <mxGeometry width="50" height="50" relative="1" as="geometry">
            <mxPoint x="90" y="28" as="sourcePoint" />
            <mxPoint x="110" y="10" as="targetPoint" />
          </mxGeometry>
        </mxCell>
        <mxCell id="lHOqpLfYiDpw_6H5dYu--104" value="" style="endArrow=oval;html=1;rounded=0;fillColor=#dae8fc;strokeColor=#6c8ebf;strokeWidth=3;startArrow=oval;startFill=1;jumpStyle=none;endFill=1;endSize=1;startSize=1;" edge="1" parent="lHOqpLfYiDpw_6H5dYu--136">
          <mxGeometry width="50" height="50" relative="1" as="geometry">
            <mxPoint x="170" y="32" as="sourcePoint" />
            <mxPoint x="200" y="32" as="targetPoint" />
          </mxGeometry>
        </mxCell>
        <mxCell id="lHOqpLfYiDpw_6H5dYu--105" value="" style="endArrow=oval;html=1;rounded=0;fillColor=#dae8fc;strokeColor=#6c8ebf;strokeWidth=3;startArrow=oval;startFill=1;jumpStyle=none;endFill=1;endSize=1;startSize=1;" edge="1" parent="lHOqpLfYiDpw_6H5dYu--136">
          <mxGeometry width="50" height="50" relative="1" as="geometry">
            <mxPoint x="170" y="28" as="sourcePoint" />
            <mxPoint x="200" y="28" as="targetPoint" />
          </mxGeometry>
        </mxCell>
        <mxCell id="lHOqpLfYiDpw_6H5dYu--106" value="" style="endArrow=oval;html=1;rounded=0;fillColor=#dae8fc;strokeColor=#6c8ebf;strokeWidth=3;startArrow=oval;startFill=1;jumpStyle=none;endFill=1;endSize=1;startSize=1;" edge="1" parent="lHOqpLfYiDpw_6H5dYu--136">
          <mxGeometry width="50" height="50" relative="1" as="geometry">
            <mxPoint x="200" y="32" as="sourcePoint" />
            <mxPoint x="220" y="50" as="targetPoint" />
          </mxGeometry>
        </mxCell>
        <mxCell id="lHOqpLfYiDpw_6H5dYu--107" value="" style="endArrow=oval;html=1;rounded=0;fillColor=#dae8fc;strokeColor=#6c8ebf;strokeWidth=3;startArrow=oval;startFill=1;jumpStyle=none;endFill=1;endSize=1;startSize=1;" edge="1" parent="lHOqpLfYiDpw_6H5dYu--136">
          <mxGeometry width="50" height="50" relative="1" as="geometry">
            <mxPoint x="200" y="28" as="sourcePoint" />
            <mxPoint x="220" y="10" as="targetPoint" />
          </mxGeometry>
        </mxCell>
        <mxCell id="lHOqpLfYiDpw_6H5dYu--108" value="" style="endArrow=oval;html=1;rounded=0;fillColor=#dae8fc;strokeColor=#6c8ebf;strokeWidth=3;startArrow=oval;startFill=1;jumpStyle=none;endFill=1;endSize=1;startSize=1;" edge="1" parent="lHOqpLfYiDpw_6H5dYu--136">
          <mxGeometry width="50" height="50" relative="1" as="geometry">
            <mxPoint x="110" y="10" as="sourcePoint" />
            <mxPoint x="150" y="10" as="targetPoint" />
          </mxGeometry>
        </mxCell>
        <mxCell id="lHOqpLfYiDpw_6H5dYu--109" value="Δφ" style="rounded=0;whiteSpace=wrap;html=1;fillColor=#82B366;strokeColor=none;fontFamily=UGent Panno Text;fontSize=16;fontColor=#FFFFFF;" vertex="1" parent="lHOqpLfYiDpw_6H5dYu--136">
          <mxGeometry x="115" width="30" height="17" as="geometry" />
        </mxCell>
        <mxCell id="lHOqpLfYiDpw_6H5dYu--111" value="" style="endArrow=oval;html=1;rounded=0;fillColor=#dae8fc;strokeColor=#6c8ebf;strokeWidth=3;startArrow=oval;startFill=1;jumpStyle=none;endFill=1;endSize=1;startSize=1;" edge="1" parent="lHOqpLfYiDpw_6H5dYu--136">
          <mxGeometry width="50" height="50" relative="1" as="geometry">
            <mxPoint x="220" y="9.389999999999986" as="sourcePoint" />
            <mxPoint x="260" y="9.389999999999986" as="targetPoint" />
          </mxGeometry>
        </mxCell>
        <mxCell id="lHOqpLfYiDpw_6H5dYu--112" value="" style="endArrow=oval;html=1;rounded=0;fillColor=#dae8fc;strokeColor=#6c8ebf;strokeWidth=3;startArrow=oval;startFill=1;jumpStyle=none;endFill=1;endSize=1;startSize=1;" edge="1" parent="lHOqpLfYiDpw_6H5dYu--136">
          <mxGeometry width="50" height="50" relative="1" as="geometry">
            <mxPoint x="220" y="50" as="sourcePoint" />
            <mxPoint x="260" y="50" as="targetPoint" />
          </mxGeometry>
        </mxCell>
        <mxCell id="lHOqpLfYiDpw_6H5dYu--113" value="" style="endArrow=oval;html=1;rounded=0;fillColor=#dae8fc;strokeColor=#6c8ebf;strokeWidth=3;startArrow=oval;startFill=1;jumpStyle=none;endFill=1;endSize=1;startSize=1;" edge="1" parent="lHOqpLfYiDpw_6H5dYu--136">
          <mxGeometry width="50" height="50" relative="1" as="geometry">
            <mxPoint y="10" as="sourcePoint" />
            <mxPoint x="40" y="10" as="targetPoint" />
          </mxGeometry>
        </mxCell>
        <mxCell id="lHOqpLfYiDpw_6H5dYu--114" value="" style="endArrow=oval;html=1;rounded=0;fillColor=#dae8fc;strokeColor=#6c8ebf;strokeWidth=3;startArrow=oval;startFill=1;jumpStyle=none;endFill=1;endSize=1;startSize=1;" edge="1" parent="lHOqpLfYiDpw_6H5dYu--136">
          <mxGeometry width="50" height="50" relative="1" as="geometry">
            <mxPoint y="50.610000000000014" as="sourcePoint" />
            <mxPoint x="40" y="50.610000000000014" as="targetPoint" />
          </mxGeometry>
        </mxCell>
        <mxCell id="lHOqpLfYiDpw_6H5dYu--115" value="Δφ" style="rounded=0;whiteSpace=wrap;html=1;fillColor=#82B366;strokeColor=none;fontFamily=UGent Panno Text;fontSize=16;fontColor=#FFFFFF;" vertex="1" parent="lHOqpLfYiDpw_6H5dYu--136">
          <mxGeometry x="5" y="42" width="30" height="17" as="geometry" />
        </mxCell>
        <mxCell id="lHOqpLfYiDpw_6H5dYu--137" value="" style="group" vertex="1" connectable="0" parent="1">
          <mxGeometry x="240" y="319" width="260" height="59" as="geometry" />
        </mxCell>
        <mxCell id="lHOqpLfYiDpw_6H5dYu--138" value="" style="endArrow=oval;html=1;rounded=0;fillColor=#dae8fc;strokeColor=#6c8ebf;strokeWidth=3;startArrow=oval;startFill=1;jumpStyle=none;endFill=1;endSize=1;startSize=1;" edge="1" parent="lHOqpLfYiDpw_6H5dYu--137">
          <mxGeometry width="50" height="50" relative="1" as="geometry">
            <mxPoint x="110" y="50" as="sourcePoint" />
            <mxPoint x="150" y="50" as="targetPoint" />
          </mxGeometry>
        </mxCell>
        <mxCell id="lHOqpLfYiDpw_6H5dYu--139" value="" style="endArrow=oval;html=1;rounded=0;fillColor=#dae8fc;strokeColor=#6c8ebf;strokeWidth=3;startArrow=oval;startFill=1;jumpStyle=none;endFill=1;endSize=1;startSize=1;" edge="1" parent="lHOqpLfYiDpw_6H5dYu--137">
          <mxGeometry width="50" height="50" relative="1" as="geometry">
            <mxPoint x="150" y="50" as="sourcePoint" />
            <mxPoint x="170" y="32" as="targetPoint" />
          </mxGeometry>
        </mxCell>
        <mxCell id="lHOqpLfYiDpw_6H5dYu--140" value="" style="endArrow=oval;html=1;rounded=0;fillColor=#dae8fc;strokeColor=#6c8ebf;strokeWidth=3;startArrow=oval;startFill=1;jumpStyle=none;endFill=1;endSize=1;startSize=1;" edge="1" parent="lHOqpLfYiDpw_6H5dYu--137">
          <mxGeometry width="50" height="50" relative="1" as="geometry">
            <mxPoint x="150" y="10" as="sourcePoint" />
            <mxPoint x="170" y="28" as="targetPoint" />
          </mxGeometry>
        </mxCell>
        <mxCell id="lHOqpLfYiDpw_6H5dYu--141" value="" style="endArrow=oval;html=1;rounded=0;fillColor=#dae8fc;strokeColor=#6c8ebf;strokeWidth=3;startArrow=oval;startFill=1;jumpStyle=none;endSize=1;startSize=1;endFill=1;jumpSize=3;" edge="1" parent="lHOqpLfYiDpw_6H5dYu--137">
          <mxGeometry width="50" height="50" relative="1" as="geometry">
            <mxPoint x="60" y="32" as="sourcePoint" />
            <mxPoint x="90" y="32" as="targetPoint" />
          </mxGeometry>
        </mxCell>
        <mxCell id="lHOqpLfYiDpw_6H5dYu--142" value="" style="endArrow=oval;html=1;rounded=0;fillColor=#dae8fc;strokeColor=#6c8ebf;strokeWidth=3;startArrow=oval;startFill=1;jumpStyle=none;endSize=1;startSize=1;endFill=1;jumpSize=3;" edge="1" parent="lHOqpLfYiDpw_6H5dYu--137">
          <mxGeometry width="50" height="50" relative="1" as="geometry">
            <mxPoint x="60" y="28" as="sourcePoint" />
            <mxPoint x="90" y="28" as="targetPoint" />
          </mxGeometry>
        </mxCell>
        <mxCell id="lHOqpLfYiDpw_6H5dYu--143" value="" style="endArrow=oval;html=1;rounded=0;fillColor=#dae8fc;strokeColor=#6c8ebf;strokeWidth=3;startArrow=oval;startFill=1;jumpStyle=none;endSize=1;startSize=1;endFill=1;jumpSize=3;" edge="1" parent="lHOqpLfYiDpw_6H5dYu--137">
          <mxGeometry width="50" height="50" relative="1" as="geometry">
            <mxPoint x="40" y="50" as="sourcePoint" />
            <mxPoint x="60" y="32" as="targetPoint" />
          </mxGeometry>
        </mxCell>
        <mxCell id="lHOqpLfYiDpw_6H5dYu--144" value="" style="endArrow=oval;html=1;rounded=0;fillColor=#dae8fc;strokeColor=#6C8EBF;strokeWidth=3;startArrow=oval;startFill=1;jumpStyle=none;endSize=1;startSize=1;endFill=1;jumpSize=3;" edge="1" parent="lHOqpLfYiDpw_6H5dYu--137">
          <mxGeometry width="50" height="50" relative="1" as="geometry">
            <mxPoint x="40" y="10" as="sourcePoint" />
            <mxPoint x="60" y="28" as="targetPoint" />
          </mxGeometry>
        </mxCell>
        <mxCell id="lHOqpLfYiDpw_6H5dYu--145" value="" style="endArrow=oval;html=1;rounded=0;fillColor=#dae8fc;strokeColor=#6c8ebf;strokeWidth=3;startArrow=oval;startFill=1;jumpStyle=none;endSize=1;startSize=1;endFill=1;jumpSize=3;" edge="1" parent="lHOqpLfYiDpw_6H5dYu--137">
          <mxGeometry width="50" height="50" relative="1" as="geometry">
            <mxPoint x="90" y="32" as="sourcePoint" />
            <mxPoint x="110" y="50" as="targetPoint" />
          </mxGeometry>
        </mxCell>
        <mxCell id="lHOqpLfYiDpw_6H5dYu--146" value="" style="endArrow=oval;html=1;rounded=0;fillColor=#dae8fc;strokeColor=#6c8ebf;strokeWidth=3;startArrow=oval;startFill=1;jumpStyle=none;endSize=1;startSize=1;endFill=1;jumpSize=3;" edge="1" parent="lHOqpLfYiDpw_6H5dYu--137">
          <mxGeometry width="50" height="50" relative="1" as="geometry">
            <mxPoint x="90" y="28" as="sourcePoint" />
            <mxPoint x="110" y="10" as="targetPoint" />
          </mxGeometry>
        </mxCell>
        <mxCell id="lHOqpLfYiDpw_6H5dYu--147" value="" style="endArrow=oval;html=1;rounded=0;fillColor=#dae8fc;strokeColor=#6c8ebf;strokeWidth=3;startArrow=oval;startFill=1;jumpStyle=none;endFill=1;endSize=1;startSize=1;" edge="1" parent="lHOqpLfYiDpw_6H5dYu--137">
          <mxGeometry width="50" height="50" relative="1" as="geometry">
            <mxPoint x="170" y="32" as="sourcePoint" />
            <mxPoint x="200" y="32" as="targetPoint" />
          </mxGeometry>
        </mxCell>
        <mxCell id="lHOqpLfYiDpw_6H5dYu--148" value="" style="endArrow=oval;html=1;rounded=0;fillColor=#dae8fc;strokeColor=#6c8ebf;strokeWidth=3;startArrow=oval;startFill=1;jumpStyle=none;endFill=1;endSize=1;startSize=1;" edge="1" parent="lHOqpLfYiDpw_6H5dYu--137">
          <mxGeometry width="50" height="50" relative="1" as="geometry">
            <mxPoint x="170" y="28" as="sourcePoint" />
            <mxPoint x="200" y="28" as="targetPoint" />
          </mxGeometry>
        </mxCell>
        <mxCell id="lHOqpLfYiDpw_6H5dYu--149" value="" style="endArrow=oval;html=1;rounded=0;fillColor=#dae8fc;strokeColor=#6c8ebf;strokeWidth=3;startArrow=oval;startFill=1;jumpStyle=none;endFill=1;endSize=1;startSize=1;" edge="1" parent="lHOqpLfYiDpw_6H5dYu--137">
          <mxGeometry width="50" height="50" relative="1" as="geometry">
            <mxPoint x="200" y="32" as="sourcePoint" />
            <mxPoint x="220" y="50" as="targetPoint" />
          </mxGeometry>
        </mxCell>
        <mxCell id="lHOqpLfYiDpw_6H5dYu--150" value="" style="endArrow=oval;html=1;rounded=0;fillColor=#dae8fc;strokeColor=#6c8ebf;strokeWidth=3;startArrow=oval;startFill=1;jumpStyle=none;endFill=1;endSize=1;startSize=1;" edge="1" parent="lHOqpLfYiDpw_6H5dYu--137">
          <mxGeometry width="50" height="50" relative="1" as="geometry">
            <mxPoint x="200" y="28" as="sourcePoint" />
            <mxPoint x="220" y="10" as="targetPoint" />
          </mxGeometry>
        </mxCell>
        <mxCell id="lHOqpLfYiDpw_6H5dYu--151" value="" style="endArrow=oval;html=1;rounded=0;fillColor=#dae8fc;strokeColor=#6c8ebf;strokeWidth=3;startArrow=oval;startFill=1;jumpStyle=none;endFill=1;endSize=1;startSize=1;" edge="1" parent="lHOqpLfYiDpw_6H5dYu--137">
          <mxGeometry width="50" height="50" relative="1" as="geometry">
            <mxPoint x="110" y="10" as="sourcePoint" />
            <mxPoint x="150" y="10" as="targetPoint" />
          </mxGeometry>
        </mxCell>
        <mxCell id="lHOqpLfYiDpw_6H5dYu--152" value="Δφ" style="rounded=0;whiteSpace=wrap;html=1;fillColor=#82B366;strokeColor=none;fontFamily=UGent Panno Text;fontSize=16;fontColor=#FFFFFF;" vertex="1" parent="lHOqpLfYiDpw_6H5dYu--137">
          <mxGeometry x="115" width="30" height="17" as="geometry" />
        </mxCell>
        <mxCell id="lHOqpLfYiDpw_6H5dYu--153" value="" style="endArrow=oval;html=1;rounded=0;fillColor=#dae8fc;strokeColor=#6c8ebf;strokeWidth=3;startArrow=oval;startFill=1;jumpStyle=none;endFill=1;endSize=1;startSize=1;" edge="1" parent="lHOqpLfYiDpw_6H5dYu--137">
          <mxGeometry width="50" height="50" relative="1" as="geometry">
            <mxPoint x="220" y="9.389999999999986" as="sourcePoint" />
            <mxPoint x="260" y="9.389999999999986" as="targetPoint" />
          </mxGeometry>
        </mxCell>
        <mxCell id="lHOqpLfYiDpw_6H5dYu--154" value="" style="endArrow=oval;html=1;rounded=0;fillColor=#dae8fc;strokeColor=#6c8ebf;strokeWidth=3;startArrow=oval;startFill=1;jumpStyle=none;endFill=1;endSize=1;startSize=1;" edge="1" parent="lHOqpLfYiDpw_6H5dYu--137">
          <mxGeometry width="50" height="50" relative="1" as="geometry">
            <mxPoint x="220" y="50" as="sourcePoint" />
            <mxPoint x="260" y="50" as="targetPoint" />
          </mxGeometry>
        </mxCell>
        <mxCell id="lHOqpLfYiDpw_6H5dYu--155" value="" style="endArrow=oval;html=1;rounded=0;fillColor=#dae8fc;strokeColor=#6c8ebf;strokeWidth=3;startArrow=oval;startFill=1;jumpStyle=none;endFill=1;endSize=1;startSize=1;" edge="1" parent="lHOqpLfYiDpw_6H5dYu--137">
          <mxGeometry width="50" height="50" relative="1" as="geometry">
            <mxPoint y="10" as="sourcePoint" />
            <mxPoint x="40" y="10" as="targetPoint" />
          </mxGeometry>
        </mxCell>
        <mxCell id="lHOqpLfYiDpw_6H5dYu--156" value="" style="endArrow=oval;html=1;rounded=0;fillColor=#dae8fc;strokeColor=#6c8ebf;strokeWidth=3;startArrow=oval;startFill=1;jumpStyle=none;endFill=1;endSize=1;startSize=1;" edge="1" parent="lHOqpLfYiDpw_6H5dYu--137">
          <mxGeometry width="50" height="50" relative="1" as="geometry">
            <mxPoint y="50.610000000000014" as="sourcePoint" />
            <mxPoint x="40" y="50.610000000000014" as="targetPoint" />
          </mxGeometry>
        </mxCell>
        <mxCell id="lHOqpLfYiDpw_6H5dYu--157" value="Δφ" style="rounded=0;whiteSpace=wrap;html=1;fillColor=#82B366;strokeColor=none;fontFamily=UGent Panno Text;fontSize=16;fontColor=#FFFFFF;" vertex="1" parent="lHOqpLfYiDpw_6H5dYu--137">
          <mxGeometry x="5" y="42" width="30" height="17" as="geometry" />
        </mxCell>
        <mxCell id="lHOqpLfYiDpw_6H5dYu--158" value="" style="group" vertex="1" connectable="0" parent="1">
          <mxGeometry x="240" y="400.5" width="260" height="59" as="geometry" />
        </mxCell>
        <mxCell id="lHOqpLfYiDpw_6H5dYu--159" value="" style="endArrow=oval;html=1;rounded=0;fillColor=#dae8fc;strokeColor=#6c8ebf;strokeWidth=3;startArrow=oval;startFill=1;jumpStyle=none;endFill=1;endSize=1;startSize=1;" edge="1" parent="lHOqpLfYiDpw_6H5dYu--158">
          <mxGeometry width="50" height="50" relative="1" as="geometry">
            <mxPoint x="110" y="50" as="sourcePoint" />
            <mxPoint x="150" y="50" as="targetPoint" />
          </mxGeometry>
        </mxCell>
        <mxCell id="lHOqpLfYiDpw_6H5dYu--160" value="" style="endArrow=oval;html=1;rounded=0;fillColor=#dae8fc;strokeColor=#6c8ebf;strokeWidth=3;startArrow=oval;startFill=1;jumpStyle=none;endFill=1;endSize=1;startSize=1;" edge="1" parent="lHOqpLfYiDpw_6H5dYu--158">
          <mxGeometry width="50" height="50" relative="1" as="geometry">
            <mxPoint x="150" y="50" as="sourcePoint" />
            <mxPoint x="170" y="32" as="targetPoint" />
          </mxGeometry>
        </mxCell>
        <mxCell id="lHOqpLfYiDpw_6H5dYu--161" value="" style="endArrow=oval;html=1;rounded=0;fillColor=#dae8fc;strokeColor=#6c8ebf;strokeWidth=3;startArrow=oval;startFill=1;jumpStyle=none;endFill=1;endSize=1;startSize=1;" edge="1" parent="lHOqpLfYiDpw_6H5dYu--158">
          <mxGeometry width="50" height="50" relative="1" as="geometry">
            <mxPoint x="150" y="10" as="sourcePoint" />
            <mxPoint x="170" y="28" as="targetPoint" />
          </mxGeometry>
        </mxCell>
        <mxCell id="lHOqpLfYiDpw_6H5dYu--162" value="" style="endArrow=oval;html=1;rounded=0;fillColor=#dae8fc;strokeColor=#6c8ebf;strokeWidth=3;startArrow=oval;startFill=1;jumpStyle=none;endSize=1;startSize=1;endFill=1;jumpSize=3;" edge="1" parent="lHOqpLfYiDpw_6H5dYu--158">
          <mxGeometry width="50" height="50" relative="1" as="geometry">
            <mxPoint x="60" y="32" as="sourcePoint" />
            <mxPoint x="90" y="32" as="targetPoint" />
          </mxGeometry>
        </mxCell>
        <mxCell id="lHOqpLfYiDpw_6H5dYu--163" value="" style="endArrow=oval;html=1;rounded=0;fillColor=#dae8fc;strokeColor=#6c8ebf;strokeWidth=3;startArrow=oval;startFill=1;jumpStyle=none;endSize=1;startSize=1;endFill=1;jumpSize=3;" edge="1" parent="lHOqpLfYiDpw_6H5dYu--158">
          <mxGeometry width="50" height="50" relative="1" as="geometry">
            <mxPoint x="60" y="28" as="sourcePoint" />
            <mxPoint x="90" y="28" as="targetPoint" />
          </mxGeometry>
        </mxCell>
        <mxCell id="lHOqpLfYiDpw_6H5dYu--164" value="" style="endArrow=oval;html=1;rounded=0;fillColor=#dae8fc;strokeColor=#6c8ebf;strokeWidth=3;startArrow=oval;startFill=1;jumpStyle=none;endSize=1;startSize=1;endFill=1;jumpSize=3;" edge="1" parent="lHOqpLfYiDpw_6H5dYu--158">
          <mxGeometry width="50" height="50" relative="1" as="geometry">
            <mxPoint x="40" y="50" as="sourcePoint" />
            <mxPoint x="60" y="32" as="targetPoint" />
          </mxGeometry>
        </mxCell>
        <mxCell id="lHOqpLfYiDpw_6H5dYu--165" value="" style="endArrow=oval;html=1;rounded=0;fillColor=#dae8fc;strokeColor=#6C8EBF;strokeWidth=3;startArrow=oval;startFill=1;jumpStyle=none;endSize=1;startSize=1;endFill=1;jumpSize=3;" edge="1" parent="lHOqpLfYiDpw_6H5dYu--158">
          <mxGeometry width="50" height="50" relative="1" as="geometry">
            <mxPoint x="40" y="10" as="sourcePoint" />
            <mxPoint x="60" y="28" as="targetPoint" />
          </mxGeometry>
        </mxCell>
        <mxCell id="lHOqpLfYiDpw_6H5dYu--166" value="" style="endArrow=oval;html=1;rounded=0;fillColor=#dae8fc;strokeColor=#6c8ebf;strokeWidth=3;startArrow=oval;startFill=1;jumpStyle=none;endSize=1;startSize=1;endFill=1;jumpSize=3;" edge="1" parent="lHOqpLfYiDpw_6H5dYu--158">
          <mxGeometry width="50" height="50" relative="1" as="geometry">
            <mxPoint x="90" y="32" as="sourcePoint" />
            <mxPoint x="110" y="50" as="targetPoint" />
          </mxGeometry>
        </mxCell>
        <mxCell id="lHOqpLfYiDpw_6H5dYu--167" value="" style="endArrow=oval;html=1;rounded=0;fillColor=#dae8fc;strokeColor=#6c8ebf;strokeWidth=3;startArrow=oval;startFill=1;jumpStyle=none;endSize=1;startSize=1;endFill=1;jumpSize=3;" edge="1" parent="lHOqpLfYiDpw_6H5dYu--158">
          <mxGeometry width="50" height="50" relative="1" as="geometry">
            <mxPoint x="90" y="28" as="sourcePoint" />
            <mxPoint x="110" y="10" as="targetPoint" />
          </mxGeometry>
        </mxCell>
        <mxCell id="lHOqpLfYiDpw_6H5dYu--168" value="" style="endArrow=oval;html=1;rounded=0;fillColor=#dae8fc;strokeColor=#6c8ebf;strokeWidth=3;startArrow=oval;startFill=1;jumpStyle=none;endFill=1;endSize=1;startSize=1;" edge="1" parent="lHOqpLfYiDpw_6H5dYu--158">
          <mxGeometry width="50" height="50" relative="1" as="geometry">
            <mxPoint x="170" y="32" as="sourcePoint" />
            <mxPoint x="200" y="32" as="targetPoint" />
          </mxGeometry>
        </mxCell>
        <mxCell id="lHOqpLfYiDpw_6H5dYu--169" value="" style="endArrow=oval;html=1;rounded=0;fillColor=#dae8fc;strokeColor=#6c8ebf;strokeWidth=3;startArrow=oval;startFill=1;jumpStyle=none;endFill=1;endSize=1;startSize=1;" edge="1" parent="lHOqpLfYiDpw_6H5dYu--158">
          <mxGeometry width="50" height="50" relative="1" as="geometry">
            <mxPoint x="170" y="28" as="sourcePoint" />
            <mxPoint x="200" y="28" as="targetPoint" />
          </mxGeometry>
        </mxCell>
        <mxCell id="lHOqpLfYiDpw_6H5dYu--170" value="" style="endArrow=oval;html=1;rounded=0;fillColor=#dae8fc;strokeColor=#6c8ebf;strokeWidth=3;startArrow=oval;startFill=1;jumpStyle=none;endFill=1;endSize=1;startSize=1;" edge="1" parent="lHOqpLfYiDpw_6H5dYu--158">
          <mxGeometry width="50" height="50" relative="1" as="geometry">
            <mxPoint x="200" y="32" as="sourcePoint" />
            <mxPoint x="220" y="50" as="targetPoint" />
          </mxGeometry>
        </mxCell>
        <mxCell id="lHOqpLfYiDpw_6H5dYu--171" value="" style="endArrow=oval;html=1;rounded=0;fillColor=#dae8fc;strokeColor=#6c8ebf;strokeWidth=3;startArrow=oval;startFill=1;jumpStyle=none;endFill=1;endSize=1;startSize=1;" edge="1" parent="lHOqpLfYiDpw_6H5dYu--158">
          <mxGeometry width="50" height="50" relative="1" as="geometry">
            <mxPoint x="200" y="28" as="sourcePoint" />
            <mxPoint x="220" y="10" as="targetPoint" />
          </mxGeometry>
        </mxCell>
        <mxCell id="lHOqpLfYiDpw_6H5dYu--172" value="" style="endArrow=oval;html=1;rounded=0;fillColor=#dae8fc;strokeColor=#6c8ebf;strokeWidth=3;startArrow=oval;startFill=1;jumpStyle=none;endFill=1;endSize=1;startSize=1;" edge="1" parent="lHOqpLfYiDpw_6H5dYu--158">
          <mxGeometry width="50" height="50" relative="1" as="geometry">
            <mxPoint x="110" y="10" as="sourcePoint" />
            <mxPoint x="150" y="10" as="targetPoint" />
          </mxGeometry>
        </mxCell>
        <mxCell id="lHOqpLfYiDpw_6H5dYu--173" value="Δφ" style="rounded=0;whiteSpace=wrap;html=1;fillColor=#82B366;strokeColor=none;fontFamily=UGent Panno Text;fontSize=16;fontColor=#FFFFFF;" vertex="1" parent="lHOqpLfYiDpw_6H5dYu--158">
          <mxGeometry x="115" width="30" height="17" as="geometry" />
        </mxCell>
        <mxCell id="lHOqpLfYiDpw_6H5dYu--174" value="" style="endArrow=oval;html=1;rounded=0;fillColor=#dae8fc;strokeColor=#6c8ebf;strokeWidth=3;startArrow=oval;startFill=1;jumpStyle=none;endFill=1;endSize=1;startSize=1;" edge="1" parent="lHOqpLfYiDpw_6H5dYu--158">
          <mxGeometry width="50" height="50" relative="1" as="geometry">
            <mxPoint x="220" y="9.389999999999986" as="sourcePoint" />
            <mxPoint x="260" y="9.389999999999986" as="targetPoint" />
          </mxGeometry>
        </mxCell>
        <mxCell id="lHOqpLfYiDpw_6H5dYu--175" value="" style="endArrow=oval;html=1;rounded=0;fillColor=#dae8fc;strokeColor=#6c8ebf;strokeWidth=3;startArrow=oval;startFill=1;jumpStyle=none;endFill=1;endSize=1;startSize=1;" edge="1" parent="lHOqpLfYiDpw_6H5dYu--158">
          <mxGeometry width="50" height="50" relative="1" as="geometry">
            <mxPoint x="220" y="50" as="sourcePoint" />
            <mxPoint x="260" y="50" as="targetPoint" />
          </mxGeometry>
        </mxCell>
        <mxCell id="lHOqpLfYiDpw_6H5dYu--176" value="" style="endArrow=oval;html=1;rounded=0;fillColor=#dae8fc;strokeColor=#6c8ebf;strokeWidth=3;startArrow=oval;startFill=1;jumpStyle=none;endFill=1;endSize=1;startSize=1;" edge="1" parent="lHOqpLfYiDpw_6H5dYu--158">
          <mxGeometry width="50" height="50" relative="1" as="geometry">
            <mxPoint y="10" as="sourcePoint" />
            <mxPoint x="40" y="10" as="targetPoint" />
          </mxGeometry>
        </mxCell>
        <mxCell id="lHOqpLfYiDpw_6H5dYu--177" value="" style="endArrow=oval;html=1;rounded=0;fillColor=#dae8fc;strokeColor=#6c8ebf;strokeWidth=3;startArrow=oval;startFill=1;jumpStyle=none;endFill=1;endSize=1;startSize=1;" edge="1" parent="lHOqpLfYiDpw_6H5dYu--158">
          <mxGeometry width="50" height="50" relative="1" as="geometry">
            <mxPoint y="50.610000000000014" as="sourcePoint" />
            <mxPoint x="40" y="50.610000000000014" as="targetPoint" />
          </mxGeometry>
        </mxCell>
        <mxCell id="lHOqpLfYiDpw_6H5dYu--178" value="Δφ" style="rounded=0;whiteSpace=wrap;html=1;fillColor=#82B366;strokeColor=none;fontFamily=UGent Panno Text;fontSize=16;fontColor=#FFFFFF;" vertex="1" parent="lHOqpLfYiDpw_6H5dYu--158">
          <mxGeometry x="5" y="42" width="30" height="17" as="geometry" />
        </mxCell>
        <mxCell id="lHOqpLfYiDpw_6H5dYu--181" value="" style="group" vertex="1" connectable="0" parent="1">
          <mxGeometry x="500" y="359.5" width="260" height="59" as="geometry" />
        </mxCell>
        <mxCell id="lHOqpLfYiDpw_6H5dYu--182" value="" style="endArrow=oval;html=1;rounded=0;fillColor=#dae8fc;strokeColor=#6c8ebf;strokeWidth=3;startArrow=oval;startFill=1;jumpStyle=none;endFill=1;endSize=1;startSize=1;" edge="1" parent="lHOqpLfYiDpw_6H5dYu--181">
          <mxGeometry width="50" height="50" relative="1" as="geometry">
            <mxPoint x="110" y="50" as="sourcePoint" />
            <mxPoint x="150" y="50" as="targetPoint" />
          </mxGeometry>
        </mxCell>
        <mxCell id="lHOqpLfYiDpw_6H5dYu--183" value="" style="endArrow=oval;html=1;rounded=0;fillColor=#dae8fc;strokeColor=#6c8ebf;strokeWidth=3;startArrow=oval;startFill=1;jumpStyle=none;endFill=1;endSize=1;startSize=1;" edge="1" parent="lHOqpLfYiDpw_6H5dYu--181">
          <mxGeometry width="50" height="50" relative="1" as="geometry">
            <mxPoint x="150" y="50" as="sourcePoint" />
            <mxPoint x="170" y="32" as="targetPoint" />
          </mxGeometry>
        </mxCell>
        <mxCell id="lHOqpLfYiDpw_6H5dYu--184" value="" style="endArrow=oval;html=1;rounded=0;fillColor=#dae8fc;strokeColor=#6c8ebf;strokeWidth=3;startArrow=oval;startFill=1;jumpStyle=none;endFill=1;endSize=1;startSize=1;" edge="1" parent="lHOqpLfYiDpw_6H5dYu--181">
          <mxGeometry width="50" height="50" relative="1" as="geometry">
            <mxPoint x="150" y="10" as="sourcePoint" />
            <mxPoint x="170" y="28" as="targetPoint" />
          </mxGeometry>
        </mxCell>
        <mxCell id="lHOqpLfYiDpw_6H5dYu--185" value="" style="endArrow=oval;html=1;rounded=0;fillColor=#dae8fc;strokeColor=#6c8ebf;strokeWidth=3;startArrow=oval;startFill=1;jumpStyle=none;endSize=1;startSize=1;endFill=1;jumpSize=3;" edge="1" parent="lHOqpLfYiDpw_6H5dYu--181">
          <mxGeometry width="50" height="50" relative="1" as="geometry">
            <mxPoint x="60" y="32" as="sourcePoint" />
            <mxPoint x="90" y="32" as="targetPoint" />
          </mxGeometry>
        </mxCell>
        <mxCell id="lHOqpLfYiDpw_6H5dYu--186" value="" style="endArrow=oval;html=1;rounded=0;fillColor=#dae8fc;strokeColor=#6c8ebf;strokeWidth=3;startArrow=oval;startFill=1;jumpStyle=none;endSize=1;startSize=1;endFill=1;jumpSize=3;" edge="1" parent="lHOqpLfYiDpw_6H5dYu--181">
          <mxGeometry width="50" height="50" relative="1" as="geometry">
            <mxPoint x="60" y="28" as="sourcePoint" />
            <mxPoint x="90" y="28" as="targetPoint" />
          </mxGeometry>
        </mxCell>
        <mxCell id="lHOqpLfYiDpw_6H5dYu--187" value="" style="endArrow=oval;html=1;rounded=0;fillColor=#dae8fc;strokeColor=#6c8ebf;strokeWidth=3;startArrow=oval;startFill=1;jumpStyle=none;endSize=1;startSize=1;endFill=1;jumpSize=3;" edge="1" parent="lHOqpLfYiDpw_6H5dYu--181">
          <mxGeometry width="50" height="50" relative="1" as="geometry">
            <mxPoint x="40" y="50" as="sourcePoint" />
            <mxPoint x="60" y="32" as="targetPoint" />
          </mxGeometry>
        </mxCell>
        <mxCell id="lHOqpLfYiDpw_6H5dYu--188" value="" style="endArrow=oval;html=1;rounded=0;fillColor=#dae8fc;strokeColor=#6C8EBF;strokeWidth=3;startArrow=oval;startFill=1;jumpStyle=none;endSize=1;startSize=1;endFill=1;jumpSize=3;" edge="1" parent="lHOqpLfYiDpw_6H5dYu--181">
          <mxGeometry width="50" height="50" relative="1" as="geometry">
            <mxPoint x="40" y="10" as="sourcePoint" />
            <mxPoint x="60" y="28" as="targetPoint" />
          </mxGeometry>
        </mxCell>
        <mxCell id="lHOqpLfYiDpw_6H5dYu--189" value="" style="endArrow=oval;html=1;rounded=0;fillColor=#dae8fc;strokeColor=#6c8ebf;strokeWidth=3;startArrow=oval;startFill=1;jumpStyle=none;endSize=1;startSize=1;endFill=1;jumpSize=3;" edge="1" parent="lHOqpLfYiDpw_6H5dYu--181">
          <mxGeometry width="50" height="50" relative="1" as="geometry">
            <mxPoint x="90" y="32" as="sourcePoint" />
            <mxPoint x="110" y="50" as="targetPoint" />
          </mxGeometry>
        </mxCell>
        <mxCell id="lHOqpLfYiDpw_6H5dYu--190" value="" style="endArrow=oval;html=1;rounded=0;fillColor=#dae8fc;strokeColor=#6c8ebf;strokeWidth=3;startArrow=oval;startFill=1;jumpStyle=none;endSize=1;startSize=1;endFill=1;jumpSize=3;" edge="1" parent="lHOqpLfYiDpw_6H5dYu--181">
          <mxGeometry width="50" height="50" relative="1" as="geometry">
            <mxPoint x="90" y="28" as="sourcePoint" />
            <mxPoint x="110" y="10" as="targetPoint" />
          </mxGeometry>
        </mxCell>
        <mxCell id="lHOqpLfYiDpw_6H5dYu--191" value="" style="endArrow=oval;html=1;rounded=0;fillColor=#dae8fc;strokeColor=#6c8ebf;strokeWidth=3;startArrow=oval;startFill=1;jumpStyle=none;endFill=1;endSize=1;startSize=1;" edge="1" parent="lHOqpLfYiDpw_6H5dYu--181">
          <mxGeometry width="50" height="50" relative="1" as="geometry">
            <mxPoint x="170" y="32" as="sourcePoint" />
            <mxPoint x="200" y="32" as="targetPoint" />
          </mxGeometry>
        </mxCell>
        <mxCell id="lHOqpLfYiDpw_6H5dYu--192" value="" style="endArrow=oval;html=1;rounded=0;fillColor=#dae8fc;strokeColor=#6c8ebf;strokeWidth=3;startArrow=oval;startFill=1;jumpStyle=none;endFill=1;endSize=1;startSize=1;" edge="1" parent="lHOqpLfYiDpw_6H5dYu--181">
          <mxGeometry width="50" height="50" relative="1" as="geometry">
            <mxPoint x="170" y="28" as="sourcePoint" />
            <mxPoint x="200" y="28" as="targetPoint" />
          </mxGeometry>
        </mxCell>
        <mxCell id="lHOqpLfYiDpw_6H5dYu--193" value="" style="endArrow=oval;html=1;rounded=0;fillColor=#dae8fc;strokeColor=#6c8ebf;strokeWidth=3;startArrow=oval;startFill=1;jumpStyle=none;endFill=1;endSize=1;startSize=1;" edge="1" parent="lHOqpLfYiDpw_6H5dYu--181">
          <mxGeometry width="50" height="50" relative="1" as="geometry">
            <mxPoint x="200" y="32" as="sourcePoint" />
            <mxPoint x="220" y="50" as="targetPoint" />
          </mxGeometry>
        </mxCell>
        <mxCell id="lHOqpLfYiDpw_6H5dYu--194" value="" style="endArrow=oval;html=1;rounded=0;fillColor=#dae8fc;strokeColor=#6c8ebf;strokeWidth=3;startArrow=oval;startFill=1;jumpStyle=none;endFill=1;endSize=1;startSize=1;" edge="1" parent="lHOqpLfYiDpw_6H5dYu--181">
          <mxGeometry width="50" height="50" relative="1" as="geometry">
            <mxPoint x="200" y="28" as="sourcePoint" />
            <mxPoint x="220" y="10" as="targetPoint" />
          </mxGeometry>
        </mxCell>
        <mxCell id="lHOqpLfYiDpw_6H5dYu--195" value="" style="endArrow=oval;html=1;rounded=0;fillColor=#dae8fc;strokeColor=#6c8ebf;strokeWidth=3;startArrow=oval;startFill=1;jumpStyle=none;endFill=1;endSize=1;startSize=1;" edge="1" parent="lHOqpLfYiDpw_6H5dYu--181">
          <mxGeometry width="50" height="50" relative="1" as="geometry">
            <mxPoint x="110" y="10" as="sourcePoint" />
            <mxPoint x="150" y="10" as="targetPoint" />
          </mxGeometry>
        </mxCell>
        <mxCell id="lHOqpLfYiDpw_6H5dYu--196" value="Δφ" style="rounded=0;whiteSpace=wrap;html=1;fillColor=#82B366;strokeColor=none;fontFamily=UGent Panno Text;fontSize=16;fontColor=#FFFFFF;" vertex="1" parent="lHOqpLfYiDpw_6H5dYu--181">
          <mxGeometry x="115" width="30" height="17" as="geometry" />
        </mxCell>
        <mxCell id="lHOqpLfYiDpw_6H5dYu--197" value="" style="endArrow=oval;html=1;rounded=0;fillColor=#dae8fc;strokeColor=#6c8ebf;strokeWidth=3;startArrow=oval;startFill=1;jumpStyle=none;endFill=1;endSize=1;startSize=1;" edge="1" parent="lHOqpLfYiDpw_6H5dYu--181">
          <mxGeometry width="50" height="50" relative="1" as="geometry">
            <mxPoint x="220" y="9.389999999999986" as="sourcePoint" />
            <mxPoint x="260" y="9.389999999999986" as="targetPoint" />
          </mxGeometry>
        </mxCell>
        <mxCell id="lHOqpLfYiDpw_6H5dYu--198" value="" style="endArrow=oval;html=1;rounded=0;fillColor=#dae8fc;strokeColor=#6c8ebf;strokeWidth=3;startArrow=oval;startFill=1;jumpStyle=none;endFill=1;endSize=1;startSize=1;" edge="1" parent="lHOqpLfYiDpw_6H5dYu--181">
          <mxGeometry width="50" height="50" relative="1" as="geometry">
            <mxPoint x="220" y="50" as="sourcePoint" />
            <mxPoint x="260" y="50" as="targetPoint" />
          </mxGeometry>
        </mxCell>
        <mxCell id="lHOqpLfYiDpw_6H5dYu--199" value="" style="endArrow=oval;html=1;rounded=0;fillColor=#dae8fc;strokeColor=#6c8ebf;strokeWidth=3;startArrow=oval;startFill=1;jumpStyle=none;endFill=1;endSize=1;startSize=1;" edge="1" parent="lHOqpLfYiDpw_6H5dYu--181">
          <mxGeometry width="50" height="50" relative="1" as="geometry">
            <mxPoint y="10" as="sourcePoint" />
            <mxPoint x="40" y="10" as="targetPoint" />
          </mxGeometry>
        </mxCell>
        <mxCell id="lHOqpLfYiDpw_6H5dYu--200" value="" style="endArrow=oval;html=1;rounded=0;fillColor=#dae8fc;strokeColor=#6c8ebf;strokeWidth=3;startArrow=oval;startFill=1;jumpStyle=none;endFill=1;endSize=1;startSize=1;" edge="1" parent="lHOqpLfYiDpw_6H5dYu--181">
          <mxGeometry width="50" height="50" relative="1" as="geometry">
            <mxPoint y="50.610000000000014" as="sourcePoint" />
            <mxPoint x="40" y="50.610000000000014" as="targetPoint" />
          </mxGeometry>
        </mxCell>
        <mxCell id="lHOqpLfYiDpw_6H5dYu--201" value="Δφ" style="rounded=0;whiteSpace=wrap;html=1;fillColor=#82B366;strokeColor=none;fontFamily=UGent Panno Text;fontSize=16;fontColor=#FFFFFF;" vertex="1" parent="lHOqpLfYiDpw_6H5dYu--181">
          <mxGeometry x="5" y="42" width="30" height="17" as="geometry" />
        </mxCell>
        <mxCell id="lHOqpLfYiDpw_6H5dYu--205" value="" style="group" vertex="1" connectable="0" parent="1">
          <mxGeometry x="-280" y="320" width="260" height="59" as="geometry" />
        </mxCell>
        <mxCell id="lHOqpLfYiDpw_6H5dYu--206" value="" style="endArrow=oval;html=1;rounded=0;fillColor=#dae8fc;strokeColor=#6c8ebf;strokeWidth=3;startArrow=oval;startFill=1;jumpStyle=none;endFill=1;endSize=1;startSize=1;" edge="1" parent="lHOqpLfYiDpw_6H5dYu--205">
          <mxGeometry width="50" height="50" relative="1" as="geometry">
            <mxPoint x="110" y="50" as="sourcePoint" />
            <mxPoint x="150" y="50" as="targetPoint" />
          </mxGeometry>
        </mxCell>
        <mxCell id="lHOqpLfYiDpw_6H5dYu--207" value="" style="endArrow=oval;html=1;rounded=0;fillColor=#dae8fc;strokeColor=#6c8ebf;strokeWidth=3;startArrow=oval;startFill=1;jumpStyle=none;endFill=1;endSize=1;startSize=1;" edge="1" parent="lHOqpLfYiDpw_6H5dYu--205">
          <mxGeometry width="50" height="50" relative="1" as="geometry">
            <mxPoint x="150" y="50" as="sourcePoint" />
            <mxPoint x="170" y="32" as="targetPoint" />
          </mxGeometry>
        </mxCell>
        <mxCell id="lHOqpLfYiDpw_6H5dYu--208" value="" style="endArrow=oval;html=1;rounded=0;fillColor=#dae8fc;strokeColor=#6c8ebf;strokeWidth=3;startArrow=oval;startFill=1;jumpStyle=none;endFill=1;endSize=1;startSize=1;" edge="1" parent="lHOqpLfYiDpw_6H5dYu--205">
          <mxGeometry width="50" height="50" relative="1" as="geometry">
            <mxPoint x="150" y="10" as="sourcePoint" />
            <mxPoint x="170" y="28" as="targetPoint" />
          </mxGeometry>
        </mxCell>
        <mxCell id="lHOqpLfYiDpw_6H5dYu--209" value="" style="endArrow=oval;html=1;rounded=0;fillColor=#dae8fc;strokeColor=#6c8ebf;strokeWidth=3;startArrow=oval;startFill=1;jumpStyle=none;endSize=1;startSize=1;endFill=1;jumpSize=3;" edge="1" parent="lHOqpLfYiDpw_6H5dYu--205">
          <mxGeometry width="50" height="50" relative="1" as="geometry">
            <mxPoint x="60" y="32" as="sourcePoint" />
            <mxPoint x="90" y="32" as="targetPoint" />
          </mxGeometry>
        </mxCell>
        <mxCell id="lHOqpLfYiDpw_6H5dYu--210" value="" style="endArrow=oval;html=1;rounded=0;fillColor=#dae8fc;strokeColor=#6c8ebf;strokeWidth=3;startArrow=oval;startFill=1;jumpStyle=none;endSize=1;startSize=1;endFill=1;jumpSize=3;" edge="1" parent="lHOqpLfYiDpw_6H5dYu--205">
          <mxGeometry width="50" height="50" relative="1" as="geometry">
            <mxPoint x="60" y="28" as="sourcePoint" />
            <mxPoint x="90" y="28" as="targetPoint" />
          </mxGeometry>
        </mxCell>
        <mxCell id="lHOqpLfYiDpw_6H5dYu--211" value="" style="endArrow=oval;html=1;rounded=0;fillColor=#dae8fc;strokeColor=#6c8ebf;strokeWidth=3;startArrow=oval;startFill=1;jumpStyle=none;endSize=1;startSize=1;endFill=1;jumpSize=3;" edge="1" parent="lHOqpLfYiDpw_6H5dYu--205">
          <mxGeometry width="50" height="50" relative="1" as="geometry">
            <mxPoint x="40" y="50" as="sourcePoint" />
            <mxPoint x="60" y="32" as="targetPoint" />
          </mxGeometry>
        </mxCell>
        <mxCell id="lHOqpLfYiDpw_6H5dYu--212" value="" style="endArrow=oval;html=1;rounded=0;fillColor=#dae8fc;strokeColor=#6C8EBF;strokeWidth=3;startArrow=oval;startFill=1;jumpStyle=none;endSize=1;startSize=1;endFill=1;jumpSize=3;" edge="1" parent="lHOqpLfYiDpw_6H5dYu--205">
          <mxGeometry width="50" height="50" relative="1" as="geometry">
            <mxPoint x="40" y="10" as="sourcePoint" />
            <mxPoint x="60" y="28" as="targetPoint" />
          </mxGeometry>
        </mxCell>
        <mxCell id="lHOqpLfYiDpw_6H5dYu--213" value="" style="endArrow=oval;html=1;rounded=0;fillColor=#dae8fc;strokeColor=#6c8ebf;strokeWidth=3;startArrow=oval;startFill=1;jumpStyle=none;endSize=1;startSize=1;endFill=1;jumpSize=3;" edge="1" parent="lHOqpLfYiDpw_6H5dYu--205">
          <mxGeometry width="50" height="50" relative="1" as="geometry">
            <mxPoint x="90" y="32" as="sourcePoint" />
            <mxPoint x="110" y="50" as="targetPoint" />
          </mxGeometry>
        </mxCell>
        <mxCell id="lHOqpLfYiDpw_6H5dYu--214" value="" style="endArrow=oval;html=1;rounded=0;fillColor=#dae8fc;strokeColor=#6c8ebf;strokeWidth=3;startArrow=oval;startFill=1;jumpStyle=none;endSize=1;startSize=1;endFill=1;jumpSize=3;" edge="1" parent="lHOqpLfYiDpw_6H5dYu--205">
          <mxGeometry width="50" height="50" relative="1" as="geometry">
            <mxPoint x="90" y="28" as="sourcePoint" />
            <mxPoint x="110" y="10" as="targetPoint" />
          </mxGeometry>
        </mxCell>
        <mxCell id="lHOqpLfYiDpw_6H5dYu--215" value="" style="endArrow=oval;html=1;rounded=0;fillColor=#dae8fc;strokeColor=#6c8ebf;strokeWidth=3;startArrow=oval;startFill=1;jumpStyle=none;endFill=1;endSize=1;startSize=1;" edge="1" parent="lHOqpLfYiDpw_6H5dYu--205">
          <mxGeometry width="50" height="50" relative="1" as="geometry">
            <mxPoint x="170" y="32" as="sourcePoint" />
            <mxPoint x="200" y="32" as="targetPoint" />
          </mxGeometry>
        </mxCell>
        <mxCell id="lHOqpLfYiDpw_6H5dYu--216" value="" style="endArrow=oval;html=1;rounded=0;fillColor=#dae8fc;strokeColor=#6c8ebf;strokeWidth=3;startArrow=oval;startFill=1;jumpStyle=none;endFill=1;endSize=1;startSize=1;" edge="1" parent="lHOqpLfYiDpw_6H5dYu--205">
          <mxGeometry width="50" height="50" relative="1" as="geometry">
            <mxPoint x="170" y="28" as="sourcePoint" />
            <mxPoint x="200" y="28" as="targetPoint" />
          </mxGeometry>
        </mxCell>
        <mxCell id="lHOqpLfYiDpw_6H5dYu--217" value="" style="endArrow=oval;html=1;rounded=0;fillColor=#dae8fc;strokeColor=#6c8ebf;strokeWidth=3;startArrow=oval;startFill=1;jumpStyle=none;endFill=1;endSize=1;startSize=1;" edge="1" parent="lHOqpLfYiDpw_6H5dYu--205">
          <mxGeometry width="50" height="50" relative="1" as="geometry">
            <mxPoint x="200" y="32" as="sourcePoint" />
            <mxPoint x="220" y="50" as="targetPoint" />
          </mxGeometry>
        </mxCell>
        <mxCell id="lHOqpLfYiDpw_6H5dYu--218" value="" style="endArrow=oval;html=1;rounded=0;fillColor=#dae8fc;strokeColor=#6c8ebf;strokeWidth=3;startArrow=oval;startFill=1;jumpStyle=none;endFill=1;endSize=1;startSize=1;" edge="1" parent="lHOqpLfYiDpw_6H5dYu--205">
          <mxGeometry width="50" height="50" relative="1" as="geometry">
            <mxPoint x="200" y="28" as="sourcePoint" />
            <mxPoint x="220" y="10" as="targetPoint" />
          </mxGeometry>
        </mxCell>
        <mxCell id="lHOqpLfYiDpw_6H5dYu--219" value="" style="endArrow=oval;html=1;rounded=0;fillColor=#dae8fc;strokeColor=#6c8ebf;strokeWidth=3;startArrow=oval;startFill=1;jumpStyle=none;endFill=1;endSize=1;startSize=1;" edge="1" parent="lHOqpLfYiDpw_6H5dYu--205">
          <mxGeometry width="50" height="50" relative="1" as="geometry">
            <mxPoint x="110" y="10" as="sourcePoint" />
            <mxPoint x="150" y="10" as="targetPoint" />
          </mxGeometry>
        </mxCell>
        <mxCell id="lHOqpLfYiDpw_6H5dYu--220" value="Δφ" style="rounded=0;whiteSpace=wrap;html=1;fillColor=#82B366;strokeColor=none;fontFamily=UGent Panno Text;fontSize=16;fontColor=#FFFFFF;" vertex="1" parent="lHOqpLfYiDpw_6H5dYu--205">
          <mxGeometry x="115" width="30" height="17" as="geometry" />
        </mxCell>
        <mxCell id="lHOqpLfYiDpw_6H5dYu--221" value="" style="endArrow=oval;html=1;rounded=0;fillColor=#dae8fc;strokeColor=#6c8ebf;strokeWidth=3;startArrow=oval;startFill=1;jumpStyle=none;endFill=1;endSize=1;startSize=1;" edge="1" parent="lHOqpLfYiDpw_6H5dYu--205">
          <mxGeometry width="50" height="50" relative="1" as="geometry">
            <mxPoint x="220" y="9.389999999999986" as="sourcePoint" />
            <mxPoint x="260" y="9.389999999999986" as="targetPoint" />
          </mxGeometry>
        </mxCell>
        <mxCell id="lHOqpLfYiDpw_6H5dYu--222" value="" style="endArrow=oval;html=1;rounded=0;fillColor=#dae8fc;strokeColor=#6c8ebf;strokeWidth=3;startArrow=oval;startFill=1;jumpStyle=none;endFill=1;endSize=1;startSize=1;" edge="1" parent="lHOqpLfYiDpw_6H5dYu--205">
          <mxGeometry width="50" height="50" relative="1" as="geometry">
            <mxPoint x="220" y="50" as="sourcePoint" />
            <mxPoint x="260" y="50" as="targetPoint" />
          </mxGeometry>
        </mxCell>
        <mxCell id="lHOqpLfYiDpw_6H5dYu--223" value="" style="endArrow=oval;html=1;rounded=0;fillColor=#dae8fc;strokeColor=#6c8ebf;strokeWidth=3;startArrow=oval;startFill=1;jumpStyle=none;endFill=1;endSize=1;startSize=1;" edge="1" parent="lHOqpLfYiDpw_6H5dYu--205">
          <mxGeometry width="50" height="50" relative="1" as="geometry">
            <mxPoint y="10" as="sourcePoint" />
            <mxPoint x="40" y="10" as="targetPoint" />
          </mxGeometry>
        </mxCell>
        <mxCell id="lHOqpLfYiDpw_6H5dYu--224" value="" style="endArrow=oval;html=1;rounded=0;fillColor=#dae8fc;strokeColor=#6c8ebf;strokeWidth=3;startArrow=oval;startFill=1;jumpStyle=none;endFill=1;endSize=1;startSize=1;" edge="1" parent="lHOqpLfYiDpw_6H5dYu--205">
          <mxGeometry width="50" height="50" relative="1" as="geometry">
            <mxPoint y="50.610000000000014" as="sourcePoint" />
            <mxPoint x="40" y="50.610000000000014" as="targetPoint" />
          </mxGeometry>
        </mxCell>
        <mxCell id="lHOqpLfYiDpw_6H5dYu--225" value="Δφ" style="rounded=0;whiteSpace=wrap;html=1;fillColor=#82B366;strokeColor=none;fontFamily=UGent Panno Text;fontSize=16;fontColor=#FFFFFF;" vertex="1" parent="lHOqpLfYiDpw_6H5dYu--205">
          <mxGeometry x="5" y="42" width="30" height="17" as="geometry" />
        </mxCell>
        <mxCell id="lHOqpLfYiDpw_6H5dYu--226" value="" style="group" vertex="1" connectable="0" parent="1">
          <mxGeometry x="760" y="318.5" width="260" height="59" as="geometry" />
        </mxCell>
        <mxCell id="lHOqpLfYiDpw_6H5dYu--227" value="" style="endArrow=oval;html=1;rounded=0;fillColor=#dae8fc;strokeColor=#6c8ebf;strokeWidth=3;startArrow=oval;startFill=1;jumpStyle=none;endFill=1;endSize=1;startSize=1;" edge="1" parent="lHOqpLfYiDpw_6H5dYu--226">
          <mxGeometry width="50" height="50" relative="1" as="geometry">
            <mxPoint x="110" y="50" as="sourcePoint" />
            <mxPoint x="150" y="50" as="targetPoint" />
          </mxGeometry>
        </mxCell>
        <mxCell id="lHOqpLfYiDpw_6H5dYu--228" value="" style="endArrow=oval;html=1;rounded=0;fillColor=#dae8fc;strokeColor=#6c8ebf;strokeWidth=3;startArrow=oval;startFill=1;jumpStyle=none;endFill=1;endSize=1;startSize=1;" edge="1" parent="lHOqpLfYiDpw_6H5dYu--226">
          <mxGeometry width="50" height="50" relative="1" as="geometry">
            <mxPoint x="150" y="50" as="sourcePoint" />
            <mxPoint x="170" y="32" as="targetPoint" />
          </mxGeometry>
        </mxCell>
        <mxCell id="lHOqpLfYiDpw_6H5dYu--229" value="" style="endArrow=oval;html=1;rounded=0;fillColor=#dae8fc;strokeColor=#6c8ebf;strokeWidth=3;startArrow=oval;startFill=1;jumpStyle=none;endFill=1;endSize=1;startSize=1;" edge="1" parent="lHOqpLfYiDpw_6H5dYu--226">
          <mxGeometry width="50" height="50" relative="1" as="geometry">
            <mxPoint x="150" y="10" as="sourcePoint" />
            <mxPoint x="170" y="28" as="targetPoint" />
          </mxGeometry>
        </mxCell>
        <mxCell id="lHOqpLfYiDpw_6H5dYu--230" value="" style="endArrow=oval;html=1;rounded=0;fillColor=#dae8fc;strokeColor=#6c8ebf;strokeWidth=3;startArrow=oval;startFill=1;jumpStyle=none;endSize=1;startSize=1;endFill=1;jumpSize=3;" edge="1" parent="lHOqpLfYiDpw_6H5dYu--226">
          <mxGeometry width="50" height="50" relative="1" as="geometry">
            <mxPoint x="60" y="32" as="sourcePoint" />
            <mxPoint x="90" y="32" as="targetPoint" />
          </mxGeometry>
        </mxCell>
        <mxCell id="lHOqpLfYiDpw_6H5dYu--231" value="" style="endArrow=oval;html=1;rounded=0;fillColor=#dae8fc;strokeColor=#6c8ebf;strokeWidth=3;startArrow=oval;startFill=1;jumpStyle=none;endSize=1;startSize=1;endFill=1;jumpSize=3;" edge="1" parent="lHOqpLfYiDpw_6H5dYu--226">
          <mxGeometry width="50" height="50" relative="1" as="geometry">
            <mxPoint x="60" y="28" as="sourcePoint" />
            <mxPoint x="90" y="28" as="targetPoint" />
          </mxGeometry>
        </mxCell>
        <mxCell id="lHOqpLfYiDpw_6H5dYu--232" value="" style="endArrow=oval;html=1;rounded=0;fillColor=#dae8fc;strokeColor=#6c8ebf;strokeWidth=3;startArrow=oval;startFill=1;jumpStyle=none;endSize=1;startSize=1;endFill=1;jumpSize=3;" edge="1" parent="lHOqpLfYiDpw_6H5dYu--226">
          <mxGeometry width="50" height="50" relative="1" as="geometry">
            <mxPoint x="40" y="50" as="sourcePoint" />
            <mxPoint x="60" y="32" as="targetPoint" />
          </mxGeometry>
        </mxCell>
        <mxCell id="lHOqpLfYiDpw_6H5dYu--233" value="" style="endArrow=oval;html=1;rounded=0;fillColor=#dae8fc;strokeColor=#6C8EBF;strokeWidth=3;startArrow=oval;startFill=1;jumpStyle=none;endSize=1;startSize=1;endFill=1;jumpSize=3;" edge="1" parent="lHOqpLfYiDpw_6H5dYu--226">
          <mxGeometry width="50" height="50" relative="1" as="geometry">
            <mxPoint x="40" y="10" as="sourcePoint" />
            <mxPoint x="60" y="28" as="targetPoint" />
          </mxGeometry>
        </mxCell>
        <mxCell id="lHOqpLfYiDpw_6H5dYu--234" value="" style="endArrow=oval;html=1;rounded=0;fillColor=#dae8fc;strokeColor=#6c8ebf;strokeWidth=3;startArrow=oval;startFill=1;jumpStyle=none;endSize=1;startSize=1;endFill=1;jumpSize=3;" edge="1" parent="lHOqpLfYiDpw_6H5dYu--226">
          <mxGeometry width="50" height="50" relative="1" as="geometry">
            <mxPoint x="90" y="32" as="sourcePoint" />
            <mxPoint x="110" y="50" as="targetPoint" />
          </mxGeometry>
        </mxCell>
        <mxCell id="lHOqpLfYiDpw_6H5dYu--235" value="" style="endArrow=oval;html=1;rounded=0;fillColor=#dae8fc;strokeColor=#6c8ebf;strokeWidth=3;startArrow=oval;startFill=1;jumpStyle=none;endSize=1;startSize=1;endFill=1;jumpSize=3;" edge="1" parent="lHOqpLfYiDpw_6H5dYu--226">
          <mxGeometry width="50" height="50" relative="1" as="geometry">
            <mxPoint x="90" y="28" as="sourcePoint" />
            <mxPoint x="110" y="10" as="targetPoint" />
          </mxGeometry>
        </mxCell>
        <mxCell id="lHOqpLfYiDpw_6H5dYu--236" value="" style="endArrow=oval;html=1;rounded=0;fillColor=#dae8fc;strokeColor=#6c8ebf;strokeWidth=3;startArrow=oval;startFill=1;jumpStyle=none;endFill=1;endSize=1;startSize=1;" edge="1" parent="lHOqpLfYiDpw_6H5dYu--226">
          <mxGeometry width="50" height="50" relative="1" as="geometry">
            <mxPoint x="170" y="32" as="sourcePoint" />
            <mxPoint x="200" y="32" as="targetPoint" />
          </mxGeometry>
        </mxCell>
        <mxCell id="lHOqpLfYiDpw_6H5dYu--237" value="" style="endArrow=oval;html=1;rounded=0;fillColor=#dae8fc;strokeColor=#6c8ebf;strokeWidth=3;startArrow=oval;startFill=1;jumpStyle=none;endFill=1;endSize=1;startSize=1;" edge="1" parent="lHOqpLfYiDpw_6H5dYu--226">
          <mxGeometry width="50" height="50" relative="1" as="geometry">
            <mxPoint x="170" y="28" as="sourcePoint" />
            <mxPoint x="200" y="28" as="targetPoint" />
          </mxGeometry>
        </mxCell>
        <mxCell id="lHOqpLfYiDpw_6H5dYu--238" value="" style="endArrow=oval;html=1;rounded=0;fillColor=#dae8fc;strokeColor=#6c8ebf;strokeWidth=3;startArrow=oval;startFill=1;jumpStyle=none;endFill=1;endSize=1;startSize=1;" edge="1" parent="lHOqpLfYiDpw_6H5dYu--226">
          <mxGeometry width="50" height="50" relative="1" as="geometry">
            <mxPoint x="200" y="32" as="sourcePoint" />
            <mxPoint x="220" y="50" as="targetPoint" />
          </mxGeometry>
        </mxCell>
        <mxCell id="lHOqpLfYiDpw_6H5dYu--239" value="" style="endArrow=oval;html=1;rounded=0;fillColor=#dae8fc;strokeColor=#6c8ebf;strokeWidth=3;startArrow=oval;startFill=1;jumpStyle=none;endFill=1;endSize=1;startSize=1;" edge="1" parent="lHOqpLfYiDpw_6H5dYu--226">
          <mxGeometry width="50" height="50" relative="1" as="geometry">
            <mxPoint x="200" y="28" as="sourcePoint" />
            <mxPoint x="220" y="10" as="targetPoint" />
          </mxGeometry>
        </mxCell>
        <mxCell id="lHOqpLfYiDpw_6H5dYu--240" value="" style="endArrow=oval;html=1;rounded=0;fillColor=#dae8fc;strokeColor=#6c8ebf;strokeWidth=3;startArrow=oval;startFill=1;jumpStyle=none;endFill=1;endSize=1;startSize=1;" edge="1" parent="lHOqpLfYiDpw_6H5dYu--226">
          <mxGeometry width="50" height="50" relative="1" as="geometry">
            <mxPoint x="110" y="10" as="sourcePoint" />
            <mxPoint x="150" y="10" as="targetPoint" />
          </mxGeometry>
        </mxCell>
        <mxCell id="lHOqpLfYiDpw_6H5dYu--241" value="Δφ" style="rounded=0;whiteSpace=wrap;html=1;fillColor=#82B366;strokeColor=none;fontFamily=UGent Panno Text;fontSize=16;fontColor=#FFFFFF;" vertex="1" parent="lHOqpLfYiDpw_6H5dYu--226">
          <mxGeometry x="115" width="30" height="17" as="geometry" />
        </mxCell>
        <mxCell id="lHOqpLfYiDpw_6H5dYu--242" value="" style="endArrow=oval;html=1;rounded=0;fillColor=#dae8fc;strokeColor=#6c8ebf;strokeWidth=3;startArrow=oval;startFill=1;jumpStyle=none;endFill=1;endSize=1;startSize=1;" edge="1" parent="lHOqpLfYiDpw_6H5dYu--226">
          <mxGeometry width="50" height="50" relative="1" as="geometry">
            <mxPoint x="220" y="9.389999999999986" as="sourcePoint" />
            <mxPoint x="260" y="9.389999999999986" as="targetPoint" />
          </mxGeometry>
        </mxCell>
        <mxCell id="lHOqpLfYiDpw_6H5dYu--243" value="" style="endArrow=oval;html=1;rounded=0;fillColor=#dae8fc;strokeColor=#6c8ebf;strokeWidth=3;startArrow=oval;startFill=1;jumpStyle=none;endFill=1;endSize=1;startSize=1;" edge="1" parent="lHOqpLfYiDpw_6H5dYu--226">
          <mxGeometry width="50" height="50" relative="1" as="geometry">
            <mxPoint x="220" y="50" as="sourcePoint" />
            <mxPoint x="260" y="50" as="targetPoint" />
          </mxGeometry>
        </mxCell>
        <mxCell id="lHOqpLfYiDpw_6H5dYu--244" value="" style="endArrow=oval;html=1;rounded=0;fillColor=#dae8fc;strokeColor=#6c8ebf;strokeWidth=3;startArrow=oval;startFill=1;jumpStyle=none;endFill=1;endSize=1;startSize=1;" edge="1" parent="lHOqpLfYiDpw_6H5dYu--226">
          <mxGeometry width="50" height="50" relative="1" as="geometry">
            <mxPoint y="10" as="sourcePoint" />
            <mxPoint x="40" y="10" as="targetPoint" />
          </mxGeometry>
        </mxCell>
        <mxCell id="lHOqpLfYiDpw_6H5dYu--245" value="" style="endArrow=oval;html=1;rounded=0;fillColor=#dae8fc;strokeColor=#6c8ebf;strokeWidth=3;startArrow=oval;startFill=1;jumpStyle=none;endFill=1;endSize=1;startSize=1;" edge="1" parent="lHOqpLfYiDpw_6H5dYu--226">
          <mxGeometry width="50" height="50" relative="1" as="geometry">
            <mxPoint y="50.610000000000014" as="sourcePoint" />
            <mxPoint x="40" y="50.610000000000014" as="targetPoint" />
          </mxGeometry>
        </mxCell>
        <mxCell id="lHOqpLfYiDpw_6H5dYu--246" value="Δφ" style="rounded=0;whiteSpace=wrap;html=1;fillColor=#82B366;strokeColor=none;fontFamily=UGent Panno Text;fontSize=16;fontColor=#FFFFFF;" vertex="1" parent="lHOqpLfYiDpw_6H5dYu--226">
          <mxGeometry x="5" y="42" width="30" height="17" as="geometry" />
        </mxCell>
        <mxCell id="lHOqpLfYiDpw_6H5dYu--250" value="" style="endArrow=oval;html=1;rounded=0;fillColor=#dae8fc;strokeColor=#6c8ebf;strokeWidth=3;startArrow=oval;startFill=1;jumpStyle=none;endFill=1;endSize=1;startSize=1;" edge="1" parent="1">
          <mxGeometry width="50" height="50" relative="1" as="geometry">
            <mxPoint x="-20" y="329.5" as="sourcePoint" />
            <mxPoint x="240" y="329" as="targetPoint" />
          </mxGeometry>
        </mxCell>
        <mxCell id="lHOqpLfYiDpw_6H5dYu--251" value="" style="endArrow=oval;html=1;rounded=0;fillColor=#dae8fc;strokeColor=#6c8ebf;strokeWidth=3;startArrow=oval;startFill=1;jumpStyle=none;endFill=1;endSize=1;startSize=1;" edge="1" parent="1">
          <mxGeometry width="50" height="50" relative="1" as="geometry">
            <mxPoint x="500" y="328.5" as="sourcePoint" />
            <mxPoint x="760" y="328.5" as="targetPoint" />
          </mxGeometry>
        </mxCell>
        <mxCell id="lHOqpLfYiDpw_6H5dYu--252" value="" style="endArrow=oval;html=1;rounded=0;fillColor=#dae8fc;strokeColor=#6c8ebf;strokeWidth=3;startArrow=oval;startFill=1;jumpStyle=none;endFill=1;endSize=1;startSize=1;" edge="1" parent="1">
          <mxGeometry width="50" height="50" relative="1" as="geometry">
            <mxPoint x="-280" y="450" as="sourcePoint" />
            <mxPoint x="240" y="451" as="targetPoint" />
          </mxGeometry>
        </mxCell>
        <mxCell id="lHOqpLfYiDpw_6H5dYu--253" value="" style="endArrow=oval;html=1;rounded=0;fillColor=#dae8fc;strokeColor=#6c8ebf;strokeWidth=3;startArrow=oval;startFill=1;jumpStyle=none;endFill=1;endSize=1;startSize=1;" edge="1" parent="1">
          <mxGeometry width="50" height="50" relative="1" as="geometry">
            <mxPoint x="-280" y="410.5" as="sourcePoint" />
            <mxPoint x="-20" y="410.5" as="targetPoint" />
          </mxGeometry>
        </mxCell>
        <mxCell id="lHOqpLfYiDpw_6H5dYu--254" value="" style="endArrow=oval;html=1;rounded=0;fillColor=#dae8fc;strokeColor=#6c8ebf;strokeWidth=3;startArrow=oval;startFill=1;jumpStyle=none;endFill=1;endSize=1;startSize=1;" edge="1" parent="1">
          <mxGeometry width="50" height="50" relative="1" as="geometry">
            <mxPoint x="500" y="450.5" as="sourcePoint" />
            <mxPoint x="1020" y="450" as="targetPoint" />
          </mxGeometry>
        </mxCell>
        <mxCell id="lHOqpLfYiDpw_6H5dYu--255" value="" style="endArrow=oval;html=1;rounded=0;fillColor=#dae8fc;strokeColor=#6c8ebf;strokeWidth=3;startArrow=oval;startFill=1;jumpStyle=none;endFill=1;endSize=1;startSize=1;" edge="1" parent="1">
          <mxGeometry width="50" height="50" relative="1" as="geometry">
            <mxPoint x="760" y="409.5" as="sourcePoint" />
            <mxPoint x="1020" y="409.5" as="targetPoint" />
          </mxGeometry>
        </mxCell>
        <mxCell id="lHOqpLfYiDpw_6H5dYu--256" value="(1)" style="text;html=1;strokeColor=none;fillColor=none;align=center;verticalAlign=middle;whiteSpace=wrap;rounded=0;fontFamily=UGent Panno Text;fontSize=28;" vertex="1" parent="1">
          <mxGeometry x="-230" y="290" width="60" height="30" as="geometry" />
        </mxCell>
        <mxCell id="lHOqpLfYiDpw_6H5dYu--257" value="(2)" style="text;html=1;strokeColor=none;fillColor=none;align=center;verticalAlign=middle;whiteSpace=wrap;rounded=0;fontFamily=UGent Panno Text;fontSize=28;" vertex="1" parent="1">
          <mxGeometry x="30" y="334.5" width="50" height="30" as="geometry" />
        </mxCell>
        <mxCell id="lHOqpLfYiDpw_6H5dYu--258" value="(3)" style="text;html=1;strokeColor=none;fillColor=none;align=center;verticalAlign=middle;whiteSpace=wrap;rounded=0;fontFamily=UGent Panno Text;fontSize=28;" vertex="1" parent="1">
          <mxGeometry x="290" y="290" width="50" height="30" as="geometry" />
        </mxCell>
        <mxCell id="lHOqpLfYiDpw_6H5dYu--259" value="(4)" style="text;html=1;strokeColor=none;fillColor=none;align=center;verticalAlign=middle;whiteSpace=wrap;rounded=0;fontFamily=UGent Panno Text;fontSize=28;" vertex="1" parent="1">
          <mxGeometry x="290" y="370" width="50" height="30" as="geometry" />
        </mxCell>
        <mxCell id="lHOqpLfYiDpw_6H5dYu--260" value="(5)" style="text;html=1;strokeColor=none;fillColor=none;align=center;verticalAlign=middle;whiteSpace=wrap;rounded=0;fontFamily=UGent Panno Text;fontSize=28;" vertex="1" parent="1">
          <mxGeometry x="550" y="330" width="50" height="30" as="geometry" />
        </mxCell>
        <mxCell id="lHOqpLfYiDpw_6H5dYu--261" value="(6)" style="text;html=1;strokeColor=none;fillColor=none;align=center;verticalAlign=middle;whiteSpace=wrap;rounded=0;fontFamily=UGent Panno Text;fontSize=28;" vertex="1" parent="1">
          <mxGeometry x="810" y="290" width="50" height="30" as="geometry" />
        </mxCell>
        <mxCell id="lHOqpLfYiDpw_6H5dYu--262" value="I&lt;sub&gt;1&lt;/sub&gt;" style="text;html=1;strokeColor=none;fillColor=none;align=center;verticalAlign=middle;whiteSpace=wrap;rounded=0;fontFamily=UGent Panno Text;fontSize=28;" vertex="1" parent="1">
          <mxGeometry x="-310" y="315.5" width="30" height="30" as="geometry" />
        </mxCell>
        <mxCell id="lHOqpLfYiDpw_6H5dYu--263" value="I&lt;span style=&quot;font-size: 23.3333px;&quot;&gt;&lt;sub&gt;2&lt;/sub&gt;&lt;/span&gt;" style="text;html=1;strokeColor=none;fillColor=none;align=center;verticalAlign=middle;whiteSpace=wrap;rounded=0;fontFamily=UGent Panno Text;fontSize=28;" vertex="1" parent="1">
          <mxGeometry x="-310" y="355.5" width="30" height="30" as="geometry" />
        </mxCell>
        <mxCell id="lHOqpLfYiDpw_6H5dYu--264" value="I&lt;sub&gt;3&lt;/sub&gt;" style="text;html=1;strokeColor=none;fillColor=none;align=center;verticalAlign=middle;whiteSpace=wrap;rounded=0;fontFamily=UGent Panno Text;fontSize=28;" vertex="1" parent="1">
          <mxGeometry x="-310" y="394.5" width="30" height="30" as="geometry" />
        </mxCell>
        <mxCell id="lHOqpLfYiDpw_6H5dYu--265" value="I&lt;span style=&quot;font-size: 23.3333px;&quot;&gt;&lt;sub&gt;4&lt;/sub&gt;&lt;/span&gt;" style="text;html=1;strokeColor=none;fillColor=none;align=center;verticalAlign=middle;whiteSpace=wrap;rounded=0;fontFamily=UGent Panno Text;fontSize=28;" vertex="1" parent="1">
          <mxGeometry x="-310" y="435.5" width="30" height="30" as="geometry" />
        </mxCell>
        <mxCell id="lHOqpLfYiDpw_6H5dYu--267" value="Y&lt;sub&gt;1&lt;/sub&gt;" style="text;html=1;strokeColor=none;fillColor=none;align=center;verticalAlign=middle;whiteSpace=wrap;rounded=0;fontFamily=UGent Panno Text;fontSize=28;" vertex="1" parent="1">
          <mxGeometry x="1020" y="313.5" width="30" height="30" as="geometry" />
        </mxCell>
        <mxCell id="lHOqpLfYiDpw_6H5dYu--268" value="Y&lt;span style=&quot;font-size: 23.3333px;&quot;&gt;&lt;sub&gt;2&lt;/sub&gt;&lt;/span&gt;" style="text;html=1;strokeColor=none;fillColor=none;align=center;verticalAlign=middle;whiteSpace=wrap;rounded=0;fontFamily=UGent Panno Text;fontSize=28;" vertex="1" parent="1">
          <mxGeometry x="1020" y="354" width="30" height="30" as="geometry" />
        </mxCell>
        <mxCell id="lHOqpLfYiDpw_6H5dYu--269" value="Y&lt;sub&gt;3&lt;/sub&gt;" style="text;html=1;strokeColor=none;fillColor=none;align=center;verticalAlign=middle;whiteSpace=wrap;rounded=0;fontFamily=UGent Panno Text;fontSize=28;" vertex="1" parent="1">
          <mxGeometry x="1020" y="394.5" width="30" height="30" as="geometry" />
        </mxCell>
        <mxCell id="lHOqpLfYiDpw_6H5dYu--270" value="Y&lt;span style=&quot;font-size: 23.3333px;&quot;&gt;&lt;sub&gt;4&lt;/sub&gt;&lt;/span&gt;" style="text;html=1;strokeColor=none;fillColor=none;align=center;verticalAlign=middle;whiteSpace=wrap;rounded=0;fontFamily=UGent Panno Text;fontSize=28;" vertex="1" parent="1">
          <mxGeometry x="1020" y="435.5" width="30" height="30" as="geometry" />
        </mxCell>
      </root>
    </mxGraphModel>
  </diagram>
</mxfile>
